<svg id="Logo" xmlns="http://www.w3.org/2000/svg" viewBox="0 0 800 800"><path class="st0" d="M400 790.8l-2.5-1.4-337-193.9V204.6l2.5-1.4 337-194 339.5 195.4v390.8L400 790.8zM70.5 589.6L400 779.2l329.5-189.6V210.4L400 20.8 70.5 210.4v379.2z"/><path d="M407.3 259.5c19.3 0 37.2 3.1 53.9 9.2 16.6 6.1 31 15.4 43.2 27.7 12.2 12.3 21.6 27.7 28.5 46.1 6.8 18.4 10.3 40.1 10.3 65 0 21.8-2.8 41.9-8.4 60.3-5.6 18.4-14 34.4-25.4 47.8-11.3 13.4-25.4 24-42.3 31.6-16.9 7.7-36.8 11.5-59.7 11.5H278.2V259.5h129.1zm-4.6 243.9c9.5 0 18.7-1.5 27.7-4.6 8.9-3.1 16.9-8.2 23.9-15.3 7-7.1 12.6-16.4 16.8-27.9 4.2-11.5 6.3-25.4 6.3-41.9 0-15.1-1.5-28.7-4.4-40.9-2.9-12.2-7.8-22.6-14.5-31.2-6.7-8.7-15.6-15.3-26.6-19.9-11-4.6-24.7-6.9-40.9-6.9h-47v188.6h58.7z" fill="#0d1f2b"/><path class="st0" d="M129.1 562.1L400 718.5v60.8L76.9 592.8l52.2-30.7m0-6.9l-3 1.8-52.2 30.7-8.9 5.2 8.9 5.1L397 784.5l6.3-.4 2.7-4.8V715l-3-1.7-270.9-156.4-3-1.7zM670.9 237.8L400 81.4V20.6l323.1 186.5-52.2 30.7m0 7l3-1.8 52.2-30.7 8.9-5.2-8.9-5.1L403 15.4l-6.3.4-2.7 4.8v64.3l3 1.7L667.9 243l3 1.8z"/><path class="st0" d="M129.1 237.8l-52.2-30.7L400 20.6v60.8L129.1 237.8m0 7l3-1.7L397 89.6l3-1.7V13.2l-9 5.2L73.9 201.9 65 207l8.9 5.2 52.2 30.7 3 1.9z"/><path class="st2" d="M400 20.6L76.9 207.1l52.2 30.7L400 81.4z"/><path class="st0" d="M670.9 562.1l52.2 30.7L400 779.3v-60.8l270.9-156.4m0-6.9l-3 1.7L403 710.4l-3 1.7v74.7l9-5.2L726.1 598l8.9-5.1-8.9-5.2-52.2-30.7-3-1.8z"/><path class="st2" d="M400 779.3l323.1-186.5-52.2-30.7L400 718.5z"/></svg>