<?xml version="1.0" encoding="utf-8"?>
<!-- Generator: Adobe Illustrator 19.0.0, SVG Export Plug-In . SVG Version: 6.00 Build 0)  -->
<svg version="1.1" id="Layer_1" xmlns="http://www.w3.org/2000/svg" xmlns:xlink="http://www.w3.org/1999/xlink" x="0px" y="0px"
	 viewBox="-290 381 30 32" style="enable-background:new -290 381 30 32;" xml:space="preserve">
<style type="text/css">
	.st0{fill:#468592;}
	.st1{fill:#F8EFD2;}
</style>
<rect x="-290" y="381" class="st0" width="30" height="32"/>
<path class="st1" d="M-265.3,385.9c-0.3,0.2-1.4,1.3-2.4,3.1l-1.9,3.2c-0.3,0.5-0.5,1.2-0.5,1.9c0,0.9,0.3,1.7,0.7,2.3l0.1,0.1
	c0.9,1.2,2,2.4,2.4,2.8s0.6,0.9,0.6,1.5c0,1-0.7,1.8-1.5,2c-0.2,0.1-0.4,0.1-0.6,0.1c-1.2,0-2.1-0.9-2.1-2.1v-0.3
	c0.1-0.5-0.1-1.2-0.8-2c-0.7-0.7-2.1,0.7-2.5,2.1v0.1c-0.4,1.4-0.7,2.7-0.6,2.8c0,0.1,0.1,0.2,0.1,0.2c0.2,0.3,0.3,0.7,0.3,1.1
	c0,1.3-1.1,2.4-2.4,2.4c-0.9,0-1.7-0.5-2.1-1.3c-0.2-0.3-0.3-0.7-0.3-1.1c0-0.9,0.5-1.7,1.3-2.1l0.2-0.1c0.1,0,0.3-0.6,0.6-1.4
	l0.4-1.3c0-0.1,0-0.1,0.1-0.2l1.2-4.2l-1.3,2.6c-0.1-0.5-0.4-0.5-0.9-0.1c-0.3,0.2-0.9,0.7-1.1,0.9c-0.5,0.4-0.9,1-1.1,1.5
	c-0.1,0.3-0.3,0.5-0.5,0.7c-0.9,0.7-2.2,0.6-3-0.3c-0.3-0.4-0.5-0.8-0.5-1.3c0-1,0.7-1.8,1.7-2.1c0.5-0.1,2.4-1.2,3.5-2
	c0.2-0.1,0.4-0.3,0.5-0.4l2.9-2.2l-2.6,1.4h-0.6c-0.9,0.1-1.9,0.2-2.1,0.5c-0.1,0.1-0.2,0.3-0.4,0.4c-0.8,0.6-2,0.4-2.7-0.4
	c-0.2-0.3-0.3-0.7-0.3-1.1c0-0.6,0.3-1.2,0.8-1.5c0.3-0.2,0.8-0.4,1.2-0.4c0.7,0,2.5,0.4,4,0.1l0.4-0.1c1.5-0.3,3.3-1.6,4-2.9
	l1.6-2.7c0.7-0.9,1.3-1.5,1.5-1.6L-265.3,385.9z"/>
</svg>
